name rise30.9205peak61.366fall85.3838.mot
datacolumns 19
datarows 23
range 23.18991400000000 23.22658400000000
endheader
time	ground_force1_vx	ground_force1_vy	ground_force1_vz	ground_force1_px	ground_force1_py	ground_force1_pz	ground_force2_vx	ground_force2_vy	ground_force2_vz	ground_force2_px	ground_force2_py	ground_force2_pz	ground_torque1_x	ground_torque1_y	ground_torque1_z	ground_torque2_x	ground_torque2_y	ground_torque2_z	
23.18991400000000	-11.43765300000000	46.54202400000000	-14.66068400000000	0.36962100000000	0.00000000000000	0.06051700000000	-51.82260100000000	770.24333899999999	-52.79085100000000	0.12914500000000	0.00000000000000	-0.11763000000000	0.00000000000000	-11.44175900000000	0.00000000000000	0.00000000000000	-22.97221300000000	0.00000000000000	
23.19158400000000	-12.26512000000000	53.13431700000000	-16.11488800000000	0.37317400000000	0.00000000000000	0.06143000000000	-52.19515600000000	767.20028200000002	-52.45258800000000	0.12839800000000	0.00000000000000	-0.11753500000000	0.00000000000000	-12.65953400000000	0.00000000000000	0.00000000000000	-22.89322700000000	0.00000000000000	
23.19324500000000	-12.87475900000000	59.65022600000000	-17.38346800000000	0.37647600000000	0.00000000000000	0.06229800000000	-52.58122400000000	764.10613000000001	-52.10543800000000	0.12764700000000	0.00000000000000	-0.11743600000000	0.00000000000000	-13.74608600000000	0.00000000000000	0.00000000000000	-22.81716900000000	0.00000000000000	
23.19491700000000	-13.25120300000000	66.02598100000000	-18.44447500000000	0.37955400000000	0.00000000000000	0.06312500000000	-52.98102400000000	760.96056799999997	-51.74936300000000	0.12689100000000	0.00000000000000	-0.11733300000000	0.00000000000000	-14.68245300000000	0.00000000000000	0.00000000000000	-22.74413700000000	0.00000000000000	
23.19660100000000	-13.39045200000000	72.22391000000000	-19.28791400000000	0.38242900000000	0.00000000000000	0.06391500000000	-53.39472400000000	757.76309000000003	-51.38431100000000	0.12613200000000	0.00000000000000	-0.11722800000000	0.00000000000000	-15.45893900000000	0.00000000000000	0.00000000000000	-22.67421300000000	0.00000000000000	
23.19824900000000	-13.29875000000000	78.23170600000000	-19.91486000000000	0.38512100000000	0.00000000000000	0.06467300000000	-53.82242700000000	754.51300100000003	-51.01021600000000	0.12536800000000	0.00000000000000	-0.11711900000000	0.00000000000000	-16.07455900000000	0.00000000000000	0.00000000000000	-22.60746400000000	0.00000000000000	
23.19991100000000	-12.99082600000000	84.05972000000000	-20.33580700000000	0.38764700000000	0.00000000000000	0.06540000000000	-54.26417600000000	751.20941000000005	-50.62699900000000	0.12460100000000	0.00000000000000	-0.11700800000000	0.00000000000000	-16.53586000000000	0.00000000000000	0.00000000000000	-22.54394100000000	0.00000000000000	
23.20157900000000	-12.48772500000000	89.73685300000000	-20.56852900000000	0.39002200000000	0.00000000000000	0.06610100000000	-54.71994700000000	747.85123999999996	-50.23457000000000	0.12383100000000	0.00000000000000	-0.11689300000000	0.00000000000000	-16.85532700000000	0.00000000000000	0.00000000000000	-22.48367600000000	0.00000000000000	
23.20324300000000	-11.81449600000000	95.30562200000000	-20.63571900000000	0.39225900000000	0.00000000000000	0.06677600000000	-55.18965000000000	744.43722500000001	-49.83282800000000	0.12305700000000	0.00000000000000	-0.11677400000000	0.00000000000000	-17.04956400000000	0.00000000000000	0.00000000000000	-22.42668600000000	0.00000000000000	
23.20491400000000	-10.99794700000000	100.81695000000001	-20.56262500000000	0.39437000000000	0.00000000000000	0.06742800000000	-55.67312000000000	740.96591599999999	-49.42166200000000	0.12228100000000	0.00000000000000	-0.11665300000000	0.00000000000000	-17.13746100000000	0.00000000000000	0.00000000000000	-22.37296900000000	0.00000000000000	
23.20657900000000	-10.06463600000000	106.32516000000000	-20.37489400000000	0.39636500000000	0.00000000000000	0.06805900000000	-56.17012100000000	737.43568600000003	-49.00095100000000	0.12150200000000	0.00000000000000	-0.11652800000000	0.00000000000000	-17.13847900000000	0.00000000000000	0.00000000000000	-22.32250400000000	0.00000000000000	
23.20824400000000	-9.03922100000000	111.88353200000000	-20.09674500000000	0.39825300000000	0.00000000000000	0.06866900000000	-56.68034100000000	733.84473100000002	-48.57056800000000	0.12072200000000	0.00000000000000	-0.11640000000000	0.00000000000000	-17.07118500000000	0.00000000000000	0.00000000000000	-22.27525200000000	0.00000000000000	
23.20990900000000	-7.94323300000000	117.54066600000000	-19.74956500000000	0.40004300000000	0.00000000000000	0.06926000000000	-57.20339000000000	730.19108400000005	-48.13037900000000	0.11993900000000	0.00000000000000	-0.11626900000000	0.00000000000000	-16.95211200000000	0.00000000000000	0.00000000000000	-22.23115600000000	0.00000000000000	
23.21158100000000	-6.79429500000000	123.33781300000000	-19.35096800000000	0.40174200000000	0.00000000000000	0.06983300000000	-57.73879700000000	726.47261700000001	-47.68024600000000	0.11915600000000	0.00000000000000	-0.11613500000000	0.00000000000000	-16.79496300000000	0.00000000000000	0.00000000000000	-22.19013600000000	0.00000000000000	
23.21324400000000	-5.60577000000000	129.30717300000001	-18.91429500000000	0.40335700000000	0.00000000000000	0.07038900000000	-58.28601000000000	722.68704800000000	-47.22002700000000	0.11837200000000	0.00000000000000	-0.11599800000000	0.00000000000000	-16.61017100000000	0.00000000000000	0.00000000000000	-22.15209600000000	0.00000000000000	
23.21491100000000	-4.38678300000000	135.47115199999999	-18.44852100000000	0.40489400000000	0.00000000000000	0.07092900000000	-58.84439700000000	718.83195799999999	-46.74958000000000	0.11758900000000	0.00000000000000	-0.11585700000000	0.00000000000000	-16.40479000000000	0.00000000000000	0.00000000000000	-22.11691800000000	0.00000000000000	
23.21657800000000	-3.14255400000000	141.84242800000001	-17.95851200000000	0.40635700000000	0.00000000000000	0.07145300000000	-59.41324000000000	714.90479200000004	-46.26876000000000	0.11680600000000	0.00000000000000	-0.11571400000000	0.00000000000000	-16.18264800000000	0.00000000000000	0.00000000000000	-22.08446300000000	0.00000000000000	
23.21824400000000	-1.87495000000000	148.42469199999999	-17.44552700000000	0.40775300000000	0.00000000000000	0.07196100000000	-59.99173600000000	710.90287599999999	-45.77742800000000	0.11602400000000	0.00000000000000	-0.11556700000000	0.00000000000000	-15.94472200000000	0.00000000000000	0.00000000000000	-22.05457300000000	0.00000000000000	
23.21991200000000	-0.58319700000000	155.21388099999999	-16.90790500000000	0.40908400000000	0.00000000000000	0.07245500000000	-60.57899800000000	706.82342400000005	-45.27544500000000	0.11524500000000	0.00000000000000	-0.11541700000000	0.00000000000000	-15.68965500000000	0.00000000000000	0.00000000000000	-22.02706900000000	0.00000000000000	
23.22158200000000	0.73536700000000	162.19970499999999	-16.34184100000000	0.41035600000000	0.00000000000000	0.07293500000000	-61.17405500000000	702.66355399999998	-44.76268100000000	0.11446900000000	0.00000000000000	-0.11526400000000	0.00000000000000	-15.41435500000000	0.00000000000000	0.00000000000000	-22.00175000000000	0.00000000000000	
23.22324800000000	2.08452100000000	169.36732599999999	-15.74217300000000	0.41157100000000	0.00000000000000	0.07340100000000	-61.77585100000000	698.42029900000000	-44.23901000000000	0.11369600000000	0.00000000000000	-0.11510700000000	0.00000000000000	-15.11461200000000	0.00000000000000	0.00000000000000	-21.97839800000000	0.00000000000000	
23.22490900000000	3.46846500000000	176.69901100000001	-15.10313000000000	0.41273400000000	0.00000000000000	0.07385400000000	-62.38324400000000	694.09062100000006	-43.70431800000000	0.11292700000000	0.00000000000000	-0.11494800000000	0.00000000000000	-14.78568700000000	0.00000000000000	0.00000000000000	-21.95677000000000	0.00000000000000	
23.22658400000000	4.89121500000000	184.17565999999999	-14.41898800000000	0.41384600000000	0.00000000000000	0.07429300000000	-62.99501000000000	689.67142400000000	-43.15850300000000	0.11216400000000	0.00000000000000	-0.11478500000000	0.00000000000000	-14.42283800000000	0.00000000000000	0.00000000000000	-21.93660800000000	0.00000000000000	
